<svg xmlns="http://www.w3.org/2000/svg" viewBox="0 0 40 40">
    <g fill="none" stroke-linecap="round" stroke-linejoin="round" stroke-width="2">
        <path d="M33 19.88l-.704-10.088C32.006 8.637 30.618 7 28.284 7H12.057C9.25 7 8.293 8.758 8 9.85L7 19.88"/>
        <path d="M31.351 34c.49-.675 5.335-7.989 6.537-9.645.226-.358.1-.795-.297-1.035l-7.89-4.48-5-2.84c-2.386-1.296-3.533-2-4.952-2-1.418 0-2.526.68-4.952 2L2.41 23.32c-.398.24-.525.677-.297 1.035L8.607 34"/>
        <path d="M39.588 33.893c-1.566-1.476-4.102-1.476-5.668 0-1.565 1.476-4.103 1.476-5.667 0s-4.102-1.476-5.667 0c-1.565 1.476-4.102 1.476-5.666 0-1.566-1.476-4.104-1.476-5.67 0-1.563 1.476-4.1 1.476-5.665 0-1.242-1.172-3.09-1.401-4.585-.712M39.588 37.893c-1.566-1.476-4.102-1.476-5.668 0-1.565 1.476-4.103 1.476-5.667 0s-4.102-1.476-5.667 0c-1.565 1.476-4.102 1.476-5.666 0-1.566-1.476-4.104-1.476-5.67 0-1.563 1.476-4.1 1.476-5.665 0-1.242-1.172-3.09-1.401-4.585-.712M19 11h2M25 11h2M13 11h2M17 7V1M22 7V2.738M15 20l2-1M24 20l-2-1"/>
    </g>
</svg>
