<svg xmlns="http://www.w3.org/2000/svg" viewBox="0 0 44 31">
    <g fill="none" stroke-width="2">
        <path stroke-linecap="round" stroke-linejoin="round" d="M7.953 21c4.682-1.255 9.365-1.882 14.047-1.882s9.365.627 14.047 1.882a2 2 0 0 1 1.482 1.932v1.805a2 2 0 0 1-1.201 1.833c-4.442 1.934-9.217 2.9-14.328 2.9-5.11 0-9.886-.966-14.328-2.9a2 2 0 0 1-1.201-1.833v-1.805A2 2 0 0 1 7.953 21z"/>
        <path d="M2.588 13.941C6.935 8.413 12.373 1 22.068 1c9.693 0 15.026 7.397 19.344 12.941 1.556 1.25 1.799 3.287.73 6.113a2 2 0 0 1-2.35 1.234c-5.87-1.447-11.742-2.17-17.613-2.17-5.995 0-11.99.727-17.986 2.181a2 2 0 0 1-2.338-1.223c-1.092-2.83-.848-4.874.733-6.135z"/>
        <path stroke-linecap="round" stroke-linejoin="round" d="M5.176 17.824c5.733-1.726 11.772-2.589 18.118-2.589 4.847 0 10.024.863 15.53 2.589M14.235 10.059h5.177L22 7.47l2.588 2.588h5.177"/>
    </g>
</svg>
