<svg xmlns="http://www.w3.org/2000/svg" width="40" height="45" viewBox="0 0 40 45">
    <g fill="none" fill-rule="evenodd" stroke-linecap="round" stroke-linejoin="round" stroke-width="2">
        <path d="M34 19.88l-.704-10.088C33.006 8.637 31.618 7 29.284 7H13.057C10.25 7 9.293 8.758 9 9.85L8 19.88"/>
        <path d="M36.351 27.851l2.537-3.496c.226-.358.1-.795-.297-1.035l-7.89-4.48-5-2.84c-2.386-1.296-3.533-2-4.952-2-1.418 0-2.526.68-4.952 2L3.41 23.32c-.398.24-.525.677-.297 1.035L9.607 34"/>
        <path d="M30.028 29.831a.843.843 0 1 1-1.459-.844.843.843 0 0 1 1.46.844zm-2.85 6.433l1.438-2.528a4.201 4.201 0 0 0 4.36-2.072 4.34 4.34 0 0 0-1.574-5.873 4.204 4.204 0 0 0-5.797 1.553 4.336 4.336 0 0 0 .22 4.615l-6.063 10.663.991 1.283 2.214-.593.439-2.077 1.865-1.318.074-2.546 1.834-1.107zM20 11h2M26 11h2M14 11h2M18 7V1M23 7V2.738M1.333 33.939c1.42-1.333 3.723-1.333 5.142 0 1.421 1.333 3.725 1.333 5.144 0 1.42-1.333 3.723-1.333 5.143 0m19.087-.999c.901.02 1.796.353 2.484.999M1.333 38.939c1.42-1.333 3.723-1.333 5.142 0 1.421 1.333 3.725 1.333 5.144 0 1.42-1.333 3.723-1.333 5.143 0m18.952-1a3.752 3.752 0 0 1 2.619 1M16 20l2-1M25 20l-2-1"/>
    </g>
</svg>
