<svg xmlns="http://www.w3.org/2000/svg" width="40" height="44" viewBox="0 0 40 44">
    <g fill="none" fill-rule="evenodd" stroke-width="2">
        <g stroke-linecap="round" stroke-linejoin="round">
            <path d="M34 19.88l-.704-10.088C33.006 8.637 31.618 7 29.284 7H13.057C10.25 7 9.293 8.758 9 9.85L8 19.88"/>
            <path d="M36.351 27.851l2.537-3.496c.226-.358.1-.795-.297-1.035l-7.89-4.48-5-2.84c-2.386-1.296-3.533-2-4.952-2-1.418 0-2.526.68-4.952 2L3.41 23.32c-.398.24-.525.677-.297 1.035L9.607 34M20 11h2M26 11h2M14 11h2M18 7V1M23 7V2.738"/>
            <path d="M1.333 33.939c1.42-1.333 3.723-1.333 5.142 0 1.421 1.333 3.725 1.333 5.144 0 1.42-1.333 3.723-1.333 5.143 0m19.087-.999c.901.02 1.796.353 2.484.999M1.333 38.939c1.42-1.333 3.723-1.333 5.142 0 1.421 1.333 3.725 1.333 5.144 0 1.42-1.333 3.723-1.333 5.143 0m18.952-1a3.752 3.752 0 0 1 2.619 1M16 20l2-1M25 20l-2-1"/>
        </g>
        <path d="M26.5 43c-1.485 0-5.5-6.684-5.5-9.643C21 30.398 23.462 28 26.5 28s5.5 2.398 5.5 5.357S27.985 43 26.5 43zm.1-8.4a1 1 0 1 0 0-2 1 1 0 0 0 0 2z"/>
    </g>
</svg>
