<svg xmlns="http://www.w3.org/2000/svg" width="42" height="42" viewBox="0 0 42 42">
    <g fill="none" fill-rule="evenodd" stroke-linecap="round" stroke-linejoin="round" stroke-width="2">
        <path d="M36.728 19.618L6.994 28.416 1.69 10.487 31.423 1.69zM5.566 23.59a5.032 5.032 0 0 1 6.254 3.397M31.617 21.02c-.734-2.666.838-5.706 3.617-6.453M32.5 6.49c-2.48.79-5.083-.732-5.817-3.397M6.516 9.06a5.034 5.034 0 0 1-3.398 6.255M40 22h1v19H10v-9M10 36a5 5 0 0 1 5 5M36 41c0-2.648 2.404-5 5-5M41 27c-2.07 0-4.182-1.229-5-3"/>
        <path d="M17.695 18.729c.883.39 2.096.514 2.87.274 1.238-.383 1.97-1.57 1.637-2.653-.336-1.083-1.573-1.287-2.849-1.268-1.33-.004-2.514-.185-2.848-1.268-.334-1.082.399-2.27 1.636-2.652.834-.258 1.684-.086 2.254.386M17.81 10.09l.332 1.072M20.565 19.004l.33 1.07M23 30.966h4M23 34h4M30 30c-.687-1.322-1.63-2-3-2-1.517 0-3 2.013-3 5 0 1.984 1.483 4 3 4 1.418 0 2.399-.742 3-2"/>
    </g>
</svg>
