<svg xmlns="http://www.w3.org/2000/svg" width="44" height="39" viewBox="0 0 44 39">
    <g fill="none" fill-rule="evenodd" stroke-width="2" transform="translate(1 1)">
        <path stroke-linecap="round" d="M25.084 34H2a2 2 0 0 1-2-2V8a2 2 0 0 1 2-2h36a2 2 0 0 1 2 2v13.052"/>
        <circle cx="35.5" cy="30.5" r="6.5"/>
        <path stroke-linecap="round" stroke-linejoin="round" d="M33 30l2 2 3-3"/>
        <path d="M18 0h5a2 2 0 0 1 2 2v4h-9V2a2 2 0 0 1 2-2z"/>
        <path stroke-linecap="round" stroke-linejoin="round" d="M1 12a5 5 0 0 0 5-5M34.152 7a5 5 0 0 0 5 5M6 33a5 5 0 0 0-5-5M8 17l6.928-4 2.5 4.33-6.928 4zM26 14h5v6h-5z"/>
        <circle cx="20.5" cy="26.5" r="2.5"/>
    </g>
</svg>
