<svg xmlns="http://www.w3.org/2000/svg" width="31" height="41" viewBox="0 0 31 41">
    <g fill="none" fill-rule="evenodd" stroke-linecap="round" stroke-linejoin="round" stroke-width="2">
        <path d="M13.162 31.461l-3.036 8.344-3.113-3.801-4.827.912 3.195-8.776M17.626 31.461l3.036 8.344 3.112-3.801 4.826.912-3.193-8.776M26.955 15.371l2.12-3.672-3.672-2.121V5.339h-4.24l-2.12-3.672-3.672 2.12-3.672-2.12L9.58 5.34H5.34v4.239l-3.672 2.121 2.12 3.672-2.12 3.672 3.672 2.12v4.239h4.24l2.12 3.673 3.672-2.12 3.672 2.12 2.12-3.673h4.24v-4.239l3.672-2.12z"/>
        <path d="M23.114 15.371a7.744 7.744 0 0 1-7.744 7.743 7.742 7.742 0 0 1-7.741-7.743 7.743 7.743 0 1 1 15.485 0z"/>
    </g>
</svg>
