<svg xmlns="http://www.w3.org/2000/svg" width="47" height="51" viewBox="0 0 47 51">
    <g fill="none" fill-rule="evenodd" stroke-linecap="round" stroke-linejoin="round" stroke-width="2">
        <path d="M39 30.88l-.704-10.088C38.006 19.637 36.618 18 34.284 18H18.057c-2.808 0-3.764 1.758-4.058 2.85L13 30.88"/>
        <path d="M37.351 45c.49-.675 5.335-7.989 6.537-9.645.226-.358.1-.795-.297-1.035l-7.89-4.48-5-2.84c-2.386-1.296-3.533-2-4.952-2-1.418 0-2.526.68-4.952 2L8.41 34.32c-.398.24-.525.677-.297 1.035L14.607 45"/>
        <path d="M45.588 44.893c-1.566-1.476-4.102-1.476-5.668 0-1.565 1.476-4.103 1.476-5.667 0s-4.102-1.476-5.667 0c-1.565 1.476-4.102 1.476-5.666 0-1.566-1.476-4.104-1.476-5.67 0-1.563 1.476-4.1 1.476-5.665 0-1.242-1.172-3.09-1.401-4.585-.712M45.588 48.893c-1.566-1.476-4.102-1.476-5.668 0-1.565 1.476-4.103 1.476-5.667 0s-4.102-1.476-5.667 0c-1.565 1.476-4.102 1.476-5.666 0-1.566-1.476-4.104-1.476-5.67 0-1.563 1.476-4.1 1.476-5.665 0-1.242-1.172-3.09-1.401-4.585-.712M25 22h2M31 22h2M19 22h2M23 18v-6M28 18v-4.262M21 31l2-1M30 31l-2-1M12 9a3 3 0 1 1-6 0 3 3 0 0 1 6 0zM9 3V1m3.857 3.404l1.285-1.532m.767 5.086l1.97-.347M14.195 12l1.732 1m-4.876 1.638l.684 1.88m-4.788-1.88l-.684 1.88M3.804 12l-1.732 1m1.02-5.042l-1.97-.347m4.021-3.207L3.858 2.872"/>
    </g>
</svg>
