<svg width="29" height="30" viewBox="0 0 29 30" xmlns="http://www.w3.org/2000/svg">
    <g fill-rule="nonzero" fill="#FFF">
        <path d="M3.957 12c1.104-.23 2.3-.416 3.496-.416 2.9 0 4.693.556 6.257 1.066.368.14.736.232 1.104.325 2.21.648 3.773.926 7.316.926 2.576 0 4.97-.786 6.58-1.482-.185-1.25-.553-2.41-1.06-3.52-1.242.6-3.312 1.39-5.52 1.39-3.313 0-4.51-.233-6.35-.79-.32-.09-.643-.184-.966-.323-1.656-.51-3.91-1.25-7.36-1.25-.507 0-1.06.045-1.565.09 1.977-2.547 5.06-4.17 8.51-4.17 2.67 0 5.107.974 7.04 2.642h.736c1.288 0 2.576-.278 3.634-.648C23.188 2.41 19.047.23 14.446.23 6.993.232.828 5.978.092 13.3c.874-.325 2.3-.974 3.865-1.3 0-.09-.046.094 0 0zM28.847 15.986c-.276.186-1.518.88-3.175 1.437-.276.046-.552.185-.828.232-.828.185-1.748.37-2.668.37-3.313 0-4.51-.23-6.35-.787-.32-.093-.643-.186-.965-.325-1.656-.51-3.91-1.25-7.36-1.25-2.807 0-5.614.787-7.178 1.343.184 1.205.506 2.41 1.012 3.475 1.288-.462 3.773-1.204 6.21-1.204 2.9 0 4.694.556 6.258 1.066.368.14.736.232 1.105.325 2.208.648 3.772.926 7.315.926h.644c-1.978 2.456-5.015 4.032-8.374 4.032-2.714 0-5.198-1.02-7.13-2.688-1.52 0-3.037.324-4.28.65 2.623 3.428 6.764 5.652 11.41 5.652 5.89 0 10.95-3.57 13.205-8.666.046 0 0 0 0 0 .506-1.437 1.012-3.012 1.15-4.588z"/>
    </g>
</svg>