<svg width="93" height="19" viewBox="0 0 93 19" xmlns="http://www.w3.org/2000/svg">
    <g fill-rule="nonzero" fill="#FFF">
        <path d="M5.935 2.64c-1.38 0-2.3.51-2.3 1.484 0 3.105 7.637 1.437 7.637 6.58 0 2.55-2.208 4.124-5.337 4.124-2.208 0-4.325-.927-5.797-2.27L1.15 10.47c1.472 1.344 3.267 2.085 4.785 2.085 1.656 0 2.668-.648 2.668-1.714 0-3.197-7.637-1.39-7.637-6.487C.966 1.9 3.036.37 6.12.37c1.84 0 3.634.603 4.968 1.484l-1.012 2.13c-1.565-.972-3.083-1.343-4.14-1.343zM23.878 10.24h-8.143c.368 1.67 1.656 2.688 3.358 2.688 1.15 0 2.255-.463 3.037-1.25l1.242 1.343c-1.058 1.16-2.576 1.854-4.463 1.854-3.313 0-5.522-2.224-5.522-5.467 0-3.29 2.255-5.515 5.43-5.515 3.818-.092 5.336 2.41 5.06 6.35zm-2.024-1.714c-.092-1.76-1.243-2.826-2.99-2.826-1.703 0-2.9 1.065-3.175 2.826h6.164zM33.586 14.735v-1.297c-.782.973-2.025 1.436-3.543 1.436-2.346 0-3.773-1.436-3.773-3.382 0-1.993 1.473-3.244 4.05-3.244h3.266v-.37c0-1.344-.874-2.178-2.577-2.178-1.013 0-2.117.37-3.175 1.112L26.87 5.19c1.517-.88 2.575-1.344 4.645-1.344 2.76 0 4.325 1.436 4.37 3.8v7.09h-2.3zm0-3.8v-1.02h-2.9c-1.517 0-2.207.418-2.207 1.438 0 .973.78 1.622 2.07 1.622 1.655 0 2.898-.88 3.036-2.04zM53.14 7.6c0 4.123-3.084 7.135-7.362 7.135h-5.75V.463h5.796c4.232 0 7.315 3.012 7.315 7.136zm-2.44.046c0-2.92-2.162-5.005-4.968-5.005h-3.36v9.964h3.498c2.76 0 4.83-2.085 4.83-4.958zM66.39 9.314c0 3.29-2.3 5.514-5.614 5.514-3.358 0-5.613-2.224-5.613-5.514 0-3.244 2.3-5.468 5.613-5.468C64.09 3.8 66.39 6.024 66.39 9.314zm-8.88.046c0 2.085 1.334 3.522 3.312 3.522 1.933 0 3.267-1.437 3.267-3.522s-1.335-3.52-3.268-3.52c-1.978 0-3.312 1.435-3.312 3.52zM79.18 3.892v9.778c0 3.104-2.21 5.05-5.568 5.05-1.656 0-3.174-.51-4.462-1.436l1.012-1.668c1.012.74 2.07 1.158 3.358 1.158 2.025 0 3.36-1.205 3.36-3.058v-1.344c-.737 1.16-1.933 1.854-3.544 1.854-2.898 0-4.83-2.132-4.83-5.237 0-3.06 1.932-5.144 4.784-5.144 1.657 0 2.9.65 3.635 1.854V3.94h2.254V3.89zm-2.3 5.144c0-1.946-1.29-3.336-3.084-3.336-1.84 0-3.128 1.39-3.128 3.336s1.288 3.336 3.128 3.336c1.795 0 3.083-1.39 3.083-3.336zM92.798 3.892v9.778c0 3.104-2.21 5.05-5.567 5.05-1.656 0-3.174-.51-4.462-1.436l1.012-1.668c1.012.74 2.07 1.158 3.36 1.158 2.023 0 3.357-1.205 3.357-3.058v-1.344c-.736 1.16-1.932 1.854-3.542 1.854-2.9 0-4.83-2.132-4.83-5.237 0-3.06 1.93-5.144 4.784-5.144 1.655 0 2.897.65 3.633 1.854V3.94h2.255V3.89zm-2.3 5.144c0-1.946-1.29-3.336-3.083-3.336-1.84 0-3.13 1.39-3.13 3.336s1.29 3.336 3.13 3.336c1.794 0 3.082-1.39 3.082-3.336z"/>
    </g>
</svg>