<svg width="40" height="36" viewBox="0 0 40 36" xmlns="http://www.w3.org/2000/svg">
    <g stroke-width="2" fill="none" fill-rule="evenodd" stroke-linecap="round" stroke-linejoin="round">
        <path d="M9 24.578c3.587-.542 8.258-.952 11.13-.04l6.363 1.97c2.67.847 1.49 5.23-1.18 4.384l-6.84-2.122"/>
        <path d="M28.038 29.507l8.03-3.28c2.552-1.19 4.156 2.637 1.742 3.763C27.132 34.97 27.972 35 23.727 35c-2.46 0-6.106-.4-10.773-2.534-.968-.444-3.02-.118-4.954.41M1 35h7V23H1zM28.707 6.707c-.39.39-1.023.39-1.414 0-.39-.39-.39-1.024 0-1.414.39-.39 1.024-.39 1.414 0 .39.39.39 1.024 0 1.414zM23.46 13.21l2.427-2.457c1.856.85 4.113.507 5.637-1.038 1.968-1.994 1.968-5.226 0-7.22-1.968-1.994-5.158-1.994-7.126 0-1.43 1.45-1.816 3.555-1.165 5.36L13 18.226 13.743 20h2.72l1.143-2.248 2.544-.938.867-2.898 2.444-.706z"/>
    </g>
</svg>